<svg width="7" height="9" fill="none" xmlns="http://www.w3.org/2000/svg"><path d="M1.074 9V7.548H.066v-.84h1.008V5.94H.066v-.96h1.008V.48h2.952c.544 0 1.008.136 1.392.408.384.264.676.604.876 1.02.208.416.312.848.312 1.296 0 .464-.096.908-.288 1.332a2.512 2.512 0 01-.852 1.02c-.368.256-.824.384-1.368.384H2.154v.768h1.884v.84H2.154V9h-1.08zm1.08-4.02h1.884c.376 0 .672-.08.888-.24.216-.16.368-.376.456-.648a2.87 2.87 0 00.132-.888c0-.504-.124-.924-.372-1.26-.248-.336-.644-.504-1.188-.504h-1.8v3.54z" fill="#fff"/></svg>