<svg width="7" height="9" viewBox="0 0 7 9" fill="none" xmlns="http://www.w3.org/2000/svg">
<path d="M1.07441 9V7.548H0.0664062V6.708H1.07441V5.94H0.0664062V4.98H1.07441V0.48H4.02641C4.57041 0.48 5.03441 0.615999 5.41841 0.887999C5.80241 1.152 6.09441 1.492 6.29441 1.908C6.50241 2.324 6.60641 2.756 6.60641 3.204C6.60641 3.668 6.51041 4.112 6.31841 4.536C6.12641 4.952 5.84241 5.292 5.46641 5.556C5.09841 5.812 4.64241 5.94 4.09841 5.94H2.15441V6.708H4.03841V7.548H2.15441V9H1.07441ZM2.15441 4.98H4.03841C4.41441 4.98 4.71041 4.9 4.92641 4.74C5.14241 4.58 5.29441 4.364 5.38241 4.092C5.47041 3.82 5.51441 3.524 5.51441 3.204C5.51441 2.7 5.39041 2.28 5.14241 1.944C4.89441 1.608 4.49841 1.44 3.95441 1.44H2.15441V4.98Z" fill="white"/>
</svg>
