<svg width="28" height="28" fill="#000000" xmlns="http://www.w3.org/2000/svg">
  <path fill-rule="evenodd" clip-rule="evenodd" d="M28 14c0 7.73-6.266 13.998-13.997 14C21.733 27.998 28 21.73 28 14zM14 28C6.268 28 0 21.732 0 14c0 7.73 6.27 14 14 14zm-.002-28C6.268 0 0 6.27 0 14 0 6.269 6.267 0 13.998 0zM28 13.997C27.998 6.267 21.73 0 14 0c7.73 0 13.998 6.266 14 13.997zM14 16.68a2.68 2.68 0 100-5.36 2.68 2.68 0 000 5.36zm6.267-7.421a2.49 2.49 0 00-.601-.924 2.489 2.489 0 00-.925-.602c-.283-.11-.709-.24-1.492-.276-.848-.04-1.102-.047-3.249-.047-2.147 0-2.4.008-3.249.046-.783.036-1.21.167-1.492.277-.35.129-.665.335-.925.602-.267.259-.472.575-.601.924-.11.283-.241.709-.277 1.493-.038.847-.047 1.101-.047 3.248 0 2.147.009 2.4.047 3.249.036.784.167 1.21.277 1.492.129.35.334.665.601.925.26.267.575.472.925.601.283.11.709.241 1.492.277.848.039 1.102.047 3.249.047 2.147 0 2.4-.008 3.248-.047.784-.036 1.21-.167 1.493-.277a2.662 2.662 0 001.526-1.526c.11-.283.24-.708.277-1.492.038-.848.046-1.102.046-3.249 0-2.146-.008-2.4-.046-3.248-.036-.784-.167-1.21-.277-1.493zM14 18.129a4.128 4.128 0 110-8.257 4.128 4.128 0 010 8.256zm4.291-7.456a.965.965 0 110-1.93.965.965 0 010 1.93zm3.326 8.593c.199-.512.335-1.096.374-1.952.039-.857.048-1.13.048-3.314 0-2.183-.01-2.457-.048-3.314-.04-.856-.175-1.44-.374-1.952a3.938 3.938 0 00-.927-1.424 3.941 3.941 0 00-1.424-.927c-.512-.199-1.096-.334-1.952-.373-.857-.04-1.13-.05-3.314-.05-2.183 0-2.457.01-3.314.05-.856.039-1.44.174-1.952.373a3.938 3.938 0 00-1.424.927c-.409.402-.725.888-.927 1.424-.199.512-.335 1.096-.374 1.952-.039.857-.048 1.13-.048 3.314 0 2.183.01 2.457.049 3.315.039.855.175 1.44.373 1.95a3.94 3.94 0 00.927 1.425c.402.409.888.725 1.424.927.512.199 1.096.334 1.952.374.857.039 1.13.048 3.314.048 2.183 0 2.457-.01 3.315-.048.855-.04 1.44-.175 1.95-.374a4.11 4.11 0 002.352-2.351z"/>
</svg>
